<?xml version="1.0" encoding="UTF-8" standalone="no"?>
<svg width="771px" height="116px" viewBox="0 0 771 116" version="1.1" xmlns="http://www.w3.org/2000/svg" xmlns:xlink="http://www.w3.org/1999/xlink" xmlns:sketch="http://www.bohemiancoding.com/sketch/ns">
    <!-- Generator: Sketch 3.5.2 (25235) - http://www.bohemiancoding.com/sketch -->
    <title>rbh_logo</title>
    <desc>Created with Sketch.</desc>
    <defs>
        <filter x="-50%" y="-50%" width="200%" height="200%" filterUnits="objectBoundingBox" id="filter-1">
            <feOffset dx="0" dy="2" in="SourceAlpha" result="shadowOffsetOuter1"></feOffset>
            <feGaussianBlur stdDeviation="4" in="shadowOffsetOuter1" result="shadowBlurOuter1"></feGaussianBlur>
            <feColorMatrix values="0 0 0 0 0   0 0 0 0 0   0 0 0 0 0  0 0 0 0.35 0" in="shadowBlurOuter1" type="matrix" result="shadowMatrixOuter1"></feColorMatrix>
            <feMerge>
                <feMergeNode in="shadowMatrixOuter1"></feMergeNode>
                <feMergeNode in="SourceGraphic"></feMergeNode>
            </feMerge>
        </filter>
    </defs>
    <g id="Page-1" stroke="none" stroke-width="1" fill="none" fill-rule="evenodd" sketch:type="MSPage">
        <path d="M8.71875,105 L8.71875,6.7734375 L33.328125,6.7734375 C43.2656747,6.7734375 51.1523146,9.23435039 56.9882812,14.15625 C62.8242479,19.0781496 65.7421875,25.734333 65.7421875,34.125 C65.7421875,39.8437786 64.3125143,44.7890416 61.453125,48.9609375 C58.5937357,53.1328334 54.4922142,56.2499897 49.1484375,58.3125 C52.2890782,60.3750103 55.35936,63.1874822 58.359375,66.75 C61.35939,70.3125178 65.5780978,76.5233932 71.015625,85.3828125 C74.4375171,90.9609654 77.1796772,95.1562359 79.2421875,97.96875 L84.4453125,105 L67.7109375,105 L63.421875,98.53125 C63.2812493,98.2968738 63.0000021,97.8984403 62.578125,97.3359375 L59.8359375,93.46875 L55.4765625,86.296875 L50.765625,78.6328125 C47.8593605,74.6015423 45.1992308,71.390637 42.7851562,69 C40.3710817,66.609363 38.191416,64.886724 36.2460938,63.8320312 C34.3007715,62.7773385 31.031273,62.25 26.4375,62.25 L22.78125,62.25 L22.78125,105 L8.71875,105 Z M27,18.7265625 L22.78125,18.7265625 L22.78125,49.734375 L28.125,49.734375 C35.2500356,49.734375 40.1367055,49.1250061 42.7851562,47.90625 C45.433607,46.6874939 47.4960864,44.8476686 48.9726562,42.3867188 C50.4492261,39.9257689 51.1875,37.1250157 51.1875,33.984375 C51.1875,30.8906095 50.3671957,28.0898563 48.7265625,25.5820312 C47.0859293,23.0742062 44.7773586,21.3046927 41.8007812,20.2734375 C38.8242039,19.2421823 33.8906595,18.7265625 27,18.7265625 L27,18.7265625 Z M144.640625,73.78125 L99.1484375,73.78125 C99.4765641,79.9687809 101.550762,84.8906067 105.371094,88.546875 C109.191425,92.2031433 114.12497,94.03125 120.171875,94.03125 C128.609417,94.03125 136.390589,91.4062763 143.515625,86.15625 L143.515625,98.671875 C139.578105,101.296888 135.675801,103.171869 131.808594,104.296875 C127.941387,105.421881 123.406276,105.984375 118.203125,105.984375 C111.078089,105.984375 105.312522,104.507827 100.90625,101.554688 C96.499978,98.6015477 92.9726695,94.6289312 90.3242188,89.6367188 C87.675768,84.6445063 86.3515625,78.8672203 86.3515625,72.3046875 C86.3515625,62.4608883 89.1405971,54.4570621 94.71875,48.2929688 C100.296903,42.1288754 107.539018,39.046875 116.445312,39.046875 C125.02348,39.046875 131.867162,42.046845 136.976562,48.046875 C142.085963,54.046905 144.640625,62.0858871 144.640625,72.1640625 L144.640625,73.78125 Z M99.4296875,66.1171875 L131.984375,66.1171875 C131.656248,61.007787 130.132826,57.0703263 127.414062,54.3046875 C124.695299,51.5390487 121.039085,50.15625 116.445312,50.15625 C111.85154,50.15625 108.089858,51.5390487 105.160156,54.3046875 C102.230454,57.0703263 100.320317,61.007787 99.4296875,66.1171875 L99.4296875,66.1171875 Z M197.664062,6.7734375 L210.53125,6.7734375 L210.53125,105 L183.179688,105 C173.61714,105 165.98831,101.976593 160.292969,95.9296875 C154.597628,89.8827823 151.75,81.7734884 151.75,71.6015625 C151.75,62.0858899 154.738251,54.2578432 160.714844,48.1171875 C166.691436,41.9765318 174.320266,38.90625 183.601562,38.90625 C187.914084,38.90625 192.601537,39.8203034 197.664062,41.6484375 L197.664062,6.7734375 Z M197.664062,94.03125 L197.664062,53.0390625 C193.679668,51.0234274 189.648458,50.015625 185.570312,50.015625 C179.195281,50.015625 174.121113,52.1015416 170.347656,56.2734375 C166.5742,60.4453334 164.6875,66.0702771 164.6875,73.1484375 C164.6875,79.8047208 166.328109,84.937482 169.609375,88.546875 C171.578135,90.7031358 173.664051,92.1562462 175.867188,92.90625 C178.070324,93.6562538 182.031221,94.03125 187.75,94.03125 L197.664062,94.03125 Z M223.335938,6.7734375 L236.132812,6.7734375 L236.132812,44.953125 C241.66409,40.9218548 247.570281,38.90625 253.851562,38.90625 C262.054729,38.90625 268.757786,41.9999691 273.960938,48.1875 C279.164089,54.3750309 281.765625,62.320264 281.765625,72.0234375 C281.765625,82.4297395 278.660187,90.7148129 272.449219,96.8789062 C266.23825,103.043 257.92974,106.125 247.523438,106.125 C243.351542,106.125 238.957054,105.679692 234.339844,104.789062 C229.722633,103.898433 226.054701,102.773444 223.335938,101.414062 L223.335938,6.7734375 Z M236.132812,57.1875 L236.132812,92.203125 C240.492209,93.5156316 244.968727,94.171875 249.5625,94.171875 C255.234403,94.171875 259.863263,92.1562702 263.449219,88.125 C267.035174,84.0937298 268.828125,78.9140941 268.828125,72.5859375 C268.828125,66.1640304 267.152361,60.9375202 263.800781,56.90625 C260.449202,52.8749798 256.078152,50.859375 250.6875,50.859375 C245.906226,50.859375 241.054712,52.9687289 236.132812,57.1875 L236.132812,57.1875 Z M298.507812,13.1015625 C300.617198,13.1015625 302.421868,13.8281177 303.921875,15.28125 C305.421882,16.7343823 306.171875,18.5156145 306.171875,20.625 C306.171875,22.6875103 305.421882,24.4687425 303.921875,25.96875 C302.421868,27.4687575 300.617198,28.21875 298.507812,28.21875 C296.539053,28.21875 294.804695,27.4570389 293.304688,25.9335938 C291.80468,24.4101486 291.054688,22.6406351 291.054688,20.625 C291.054688,18.6562402 291.80468,16.9101639 293.304688,15.3867188 C294.804695,13.8632736 296.539053,13.1015625 298.507812,13.1015625 L298.507812,13.1015625 Z M292.179688,40.3125 L304.976562,40.3125 L304.976562,105 L292.179688,105 L292.179688,40.3125 Z M333.179688,40.3125 L333.179688,55.1484375 L333.882812,54.0234375 C340.070343,44.0390126 346.257782,39.046875 352.445312,39.046875 C357.273462,39.046875 362.312474,41.4843506 367.5625,46.359375 L360.8125,57.609375 C356.359353,53.3906039 352.234394,51.28125 348.4375,51.28125 C344.312479,51.28125 340.738296,53.2499803 337.714844,57.1875 C334.691391,61.1250197 333.179688,65.7890355 333.179688,71.1796875 L333.179688,105 L320.3125,105 L320.3125,40.3125 L333.179688,40.3125 Z M413.484375,6.7734375 L426.351562,6.7734375 L426.351562,105 L399,105 C389.437452,105 381.808622,101.976593 376.113281,95.9296875 C370.41794,89.8827823 367.570312,81.7734884 367.570312,71.6015625 C367.570312,62.0858899 370.558564,54.2578432 376.535156,48.1171875 C382.511749,41.9765318 390.140579,38.90625 399.421875,38.90625 C403.734397,38.90625 408.42185,39.8203034 413.484375,41.6484375 L413.484375,6.7734375 Z M413.484375,94.03125 L413.484375,53.0390625 C409.49998,51.0234274 405.46877,50.015625 401.390625,50.015625 C395.015593,50.015625 389.941425,52.1015416 386.167969,56.2734375 C382.394512,60.4453334 380.507812,66.0702771 380.507812,73.1484375 C380.507812,79.8047208 382.148421,84.937482 385.429688,88.546875 C387.398447,90.7031358 389.484364,92.1562462 391.6875,92.90625 C393.890636,93.6562538 397.851534,94.03125 403.570312,94.03125 L413.484375,94.03125 Z M510.734375,6.7734375 L524.796875,6.7734375 L524.796875,105 L510.734375,105 L510.734375,62.25 L455.539062,62.25 L455.539062,105 L441.476562,105 L441.476562,6.7734375 L455.539062,6.7734375 L455.539062,49.2421875 L510.734375,49.2421875 L510.734375,6.7734375 Z M581.335938,66.1171875 L581.335938,93.609375 C581.335938,95.812511 582.08593,96.9140625 583.585938,96.9140625 C585.13282,96.9140625 587.546859,95.7656365 590.828125,93.46875 L590.828125,101.273438 C587.92186,103.148447 585.589853,104.425778 583.832031,105.105469 C582.07421,105.78516 580.234385,106.125 578.3125,106.125 C572.828098,106.125 569.593755,103.968772 568.609375,99.65625 C563.171848,103.875021 557.382843,105.984375 551.242188,105.984375 C546.742165,105.984375 542.992203,104.496109 539.992188,101.519531 C536.992172,98.5429539 535.492188,94.80471 535.492188,90.3046875 C535.492188,86.2265421 536.957017,82.5820473 539.886719,79.3710938 C542.816421,76.1601402 546.976536,73.6171969 552.367188,71.7421875 L568.75,66.1171875 L568.75,62.671875 C568.75,54.8905861 564.859414,51 557.078125,51 C550.093715,51 543.296908,54.6093389 536.6875,61.828125 L536.6875,47.8359375 C541.656275,41.9765332 548.804641,39.046875 558.132812,39.046875 C565.117222,39.046875 570.718729,40.8749817 574.9375,44.53125 C576.343757,45.7031309 577.609369,47.261709 578.734375,49.2070312 C579.859381,51.1523535 580.574217,53.0976465 580.878906,55.0429688 C581.183595,56.988291 581.335938,60.6796603 581.335938,66.1171875 L581.335938,66.1171875 Z M568.75,92.203125 L568.75,73.0078125 L560.171875,76.3125 C555.812478,78.0468837 552.730478,79.79296 550.925781,81.5507812 C549.121085,83.3086025 548.21875,85.4999869 548.21875,88.125 C548.21875,90.7968884 549.07421,92.9765541 550.785156,94.6640625 C552.496102,96.3515709 554.710924,97.1953125 557.429688,97.1953125 C561.507833,97.1953125 565.281233,95.5312666 568.75,92.203125 L568.75,92.203125 Z M646.664062,89.8828125 L646.664062,102.539062 C640.242155,104.929699 633.960968,106.125 627.820312,106.125 C617.695262,106.125 609.621124,103.12503 603.597656,97.125 C597.574189,91.12497 594.5625,83.0859879 594.5625,73.0078125 C594.5625,62.8358866 597.492158,54.6328437 603.351562,48.3984375 C609.210967,42.1640313 616.921827,39.046875 626.484375,39.046875 C629.812517,39.046875 632.800768,39.3632781 635.449219,39.9960938 C638.097669,40.6289094 641.367168,41.8124913 645.257812,43.546875 L645.257812,57.1875 C638.78903,53.0624794 632.78909,51 627.257812,51 C621.492159,51 616.757831,53.0273235 613.054688,57.0820312 C609.351544,61.136739 607.5,66.3046561 607.5,72.5859375 C607.5,79.1953455 609.503886,84.445293 613.511719,88.3359375 C617.519551,92.226582 622.921841,94.171875 629.71875,94.171875 C634.64065,94.171875 640.289031,92.7422018 646.664062,89.8828125 L646.664062,89.8828125 Z M699.265625,40.3125 L714.523438,40.3125 L686.890625,72.0234375 L720.148438,105 L702.992188,105 L670.578125,72.0234375 L699.265625,40.3125 Z M657.21875,6.7734375 L670.015625,6.7734375 L670.015625,105 L657.21875,105 L657.21875,6.7734375 Z M719.03125,100.359375 L719.03125,86.578125 C722.640643,89.1093877 726.332012,91.1601484 730.105469,92.7304688 C733.878925,94.3007891 737.054675,95.0859375 739.632812,95.0859375 C742.304701,95.0859375 744.601553,94.4296941 746.523438,93.1171875 C748.445322,91.8046809 749.40625,90.2343841 749.40625,88.40625 C749.40625,86.5312406 748.785162,84.9726625 747.542969,83.7304688 C746.300775,82.488275 743.617208,80.6953242 739.492188,78.3515625 C731.242146,73.7577895 725.839857,69.8320475 723.285156,66.5742188 C720.730456,63.31639 719.453125,59.7656442 719.453125,55.921875 C719.453125,50.9531002 721.386699,46.8984532 725.253906,43.7578125 C729.121113,40.6171718 734.101532,39.046875 740.195312,39.046875 C746.523469,39.046875 753.015592,40.8281072 759.671875,44.390625 L759.671875,57.046875 C752.078087,52.453102 745.867212,50.15625 741.039062,50.15625 C738.554675,50.15625 736.550789,50.6835885 735.027344,51.7382812 C733.503899,52.792974 732.742188,54.1874913 732.742188,55.921875 C732.742188,57.4218825 733.433587,58.8515557 734.816406,60.2109375 C736.199226,61.5703193 738.624983,63.2109279 742.09375,65.1328125 L746.664062,67.734375 C757.445366,73.8281555 762.835938,80.578088 762.835938,87.984375 C762.835938,93.2812765 760.761739,97.6288893 756.613281,101.027344 C752.464823,104.425798 747.132845,106.125 740.617188,106.125 C736.773418,106.125 733.351578,105.714848 730.351562,104.894531 C727.351547,104.074215 723.578148,102.562511 719.03125,100.359375 L719.03125,100.359375 Z" id="RedbirdHacks" fill="#D6263C" filter="url(#filter-1)" sketch:type="MSShapeGroup"></path>
    </g>
</svg>
